<svg width="59" height="54" viewBox="0 0 59 54" fill="none" xmlns="http://www.w3.org/2000/svg">
<path d="M39.5 4.29854V0.847046H36.3557V4.29854H21.5V0.847046H18.1779V4.29854H0V54H58.6753V4.29854H39.5ZM18.1779 7.5V11.2015H21.5V7.5H36.3558V11.2015H39.5V7.5H55.5V15.3433H3V7.5H18.1779ZM3 51V18.5C3 18.5 18.6604 18.5 28.5 18.5C38.3396 18.5 55.5 18.5 55.5 18.5V51H3Z" fill="#F0B00B"/>
<path d="M34.6535 29.746C34.6535 30.6086 34.4379 31.3736 34.0066 32.0409C33.5753 32.7082 32.9812 33.2413 32.2243 33.64C33.087 34.0551 33.7706 34.6288 34.2751 35.3612C34.7797 36.0855 35.032 36.94 35.032 37.9247C35.032 39.5035 34.4949 40.7526 33.4206 41.6722C32.3464 42.5837 30.8856 43.0394 29.0383 43.0394C27.191 43.0394 25.7261 42.5796 24.6438 41.66C23.5614 40.7404 23.0202 39.4953 23.0202 37.9247C23.0202 36.94 23.2725 36.0814 23.7771 35.349C24.2816 34.6166 24.9612 34.0469 25.8157 33.64C25.0588 33.2413 24.4647 32.7082 24.0334 32.0409C23.6102 31.3736 23.3987 30.6086 23.3987 29.746C23.3987 28.2323 23.9032 27.0279 24.9123 26.1327C25.9214 25.2294 27.2927 24.7777 29.0261 24.7777C30.7514 24.7777 32.1185 25.2253 33.1277 26.1205C34.1449 27.0075 34.6535 28.216 34.6535 29.746ZM31.4919 37.6683C31.4919 36.8952 31.2681 36.2767 30.8205 35.8129C30.3729 35.349 29.7707 35.1171 29.0139 35.1171C28.2652 35.1171 27.6671 35.349 27.2195 35.8129C26.7719 36.2686 26.5481 36.8871 26.5481 37.6683C26.5481 38.4252 26.7678 39.0355 27.2073 39.4994C27.6467 39.9633 28.2571 40.1952 29.0383 40.1952C29.8033 40.1952 30.4014 39.9714 30.8327 39.5238C31.2722 39.0762 31.4919 38.4577 31.4919 37.6683ZM31.1257 29.9169C31.1257 29.2251 30.9426 28.6718 30.5764 28.2567C30.2102 27.8335 29.6934 27.6219 29.0261 27.6219C28.3669 27.6219 27.8542 27.8254 27.488 28.2323C27.1218 28.6392 26.9387 29.2007 26.9387 29.9169C26.9387 30.6249 27.1218 31.1945 27.488 31.6259C27.8542 32.0572 28.371 32.2728 29.0383 32.2728C29.7056 32.2728 30.2183 32.0572 30.5764 31.6259C30.9426 31.1945 31.1257 30.6249 31.1257 29.9169Z" fill="#F0B00B"/>
</svg>
