<svg width="35" height="35" viewBox="0 0 35 35" fill="none" xmlns="http://www.w3.org/2000/svg">
<path d="M24.3717 7.00923C18.6538 3.13814 10.8804 4.63527 7.00928 10.3532C3.1382 16.0711 4.63534 23.8445 10.3532 27.7156C16.0711 31.5867 23.8446 30.0895 27.7156 24.3716C31.5867 18.6537 30.0896 10.8803 24.3717 7.00923Z" fill="#F6B545"/>
<path d="M10.3532 27.7156C16.1214 31.6207 23.8105 30.1398 27.7156 24.3716C31.6208 18.6034 30.1399 10.9144 24.3717 7.00923C18.6035 3.10409 10.9144 4.58499 7.00928 10.3532C3.10415 16.1214 4.58505 23.8105 10.3532 27.7156ZM22.369 9.9673C26.5103 12.771 27.5613 18.2277 24.7576 22.369C21.9539 26.5103 16.4972 27.5612 12.3559 24.7575C8.21462 21.9538 7.16366 16.4971 9.96735 12.3558C12.771 8.21455 18.2278 7.16361 22.369 9.9673Z" fill="#FFCB5B"/>
<path d="M24.2715 7.15712C18.6035 3.10404 10.8142 4.73288 7.00924 10.3531L7.15719 10.4533C7.89668 10.9539 8.88891 10.7628 9.53737 10.1234C11.235 8.25302 13.572 7.0313 15.9522 6.70143C17.9365 6.31927 20.064 6.68122 22.0392 7.58693C22.7786 8.0877 23.7708 7.89673 24.2715 7.15712Z" fill="#F6B545"/>
<path d="M10.4534 27.5676C16.1215 31.6207 23.9107 29.9918 27.7157 24.3716L27.5677 24.2714C26.8282 23.7708 25.836 23.9619 25.1875 24.6013C23.4899 26.4717 21.1529 27.6934 18.7727 28.0233C16.7884 28.4054 14.6609 28.0435 12.6857 27.1378C11.9462 26.6369 10.9541 26.8281 10.4534 27.5676Z" fill="#FFE27A"/>
<path d="M24.4231 20.6327C21.6194 24.774 16.1626 25.825 12.0214 23.0213C10.2465 21.8197 9.02014 20.1265 8.49016 18.0422C8.76753 20.8184 9.98946 23.1554 12.3559 24.7575C16.4971 27.5612 21.9539 26.5102 24.7576 22.3689C26.3596 20.0025 26.6261 17.379 25.9004 14.9464C26.1346 16.8305 25.6247 18.8579 24.4231 20.6327Z" fill="#F19920"/>
<path d="M16.0294 9.77362C16.1773 9.87378 16.3252 9.97386 16.373 10.222C16.4685 10.718 16.1681 11.1617 15.6721 11.2572C14.1838 11.5439 12.8389 12.5746 12.0379 13.7578C11.7375 14.2015 11.2415 14.2971 10.7977 13.9966C10.354 13.6962 10.2585 13.2002 10.5589 12.7565C11.6603 11.1296 13.3534 9.90325 15.1897 9.42093C15.5857 9.47322 15.8815 9.67346 16.0294 9.77362Z" fill="#FFCB5B"/>
<path d="M20.3664 12.9253C21.2538 13.5261 21.4448 14.5183 20.8441 15.4056L16.8388 21.3217C16.238 22.2092 15.2459 22.4001 14.3586 21.7994C13.4711 21.1986 13.2801 20.2065 13.8809 19.3192L17.8861 13.4032C18.4867 12.5156 19.479 12.3245 20.3664 12.9253Z" fill="#F19920"/>
</svg>
