<svg width="55" height="38" viewBox="0 0 55 38" fill="none" xmlns="http://www.w3.org/2000/svg">
<path d="M47.5161 36.8797L2.26265 29.7703C1.01818 29.5748 0.159916 28.3966 0.355426 27.1521L4.26562 2.2627C4.46113 1.01823 5.63932 0.159967 6.8838 0.355476L52.1373 7.46492C53.3818 7.66043 54.2401 8.83863 54.0446 10.0831L50.1344 34.9725C49.9388 36.217 48.7606 37.0752 47.5161 36.8797Z" fill="#0E9347"/>
<path d="M43.2813 26.9403C40.6792 26.5316 38.1079 27.4028 36.4304 29.2259C35.3879 28.4826 34.2146 27.8345 32.7439 27.6034C28.7842 26.9814 25.0411 29.4074 23.8712 33.1651L47.5162 36.8797C48.6475 37.0575 49.6769 36.4078 50.081 35.3119C50.2505 31.2812 47.3542 27.5802 43.2813 26.9403Z" fill="#0D8944"/>
<path d="M43.3463 33.9061L7.14345 28.2185C7.53447 25.7296 5.81802 23.3733 3.32908 22.9823L5.81738 7.14358C8.30633 7.5346 10.6626 5.81815 11.0536 3.32921L47.2565 9.01676C46.8654 11.5057 48.5819 13.862 51.0708 14.253L48.5825 30.0917C46.0936 29.7007 43.7373 31.4172 43.3463 33.9061Z" fill="#3BB54A"/>
<path d="M25.6003 28.7996C30.5988 29.5849 35.3671 25.6628 36.2506 20.0395C37.134 14.4161 33.7981 9.22086 28.7995 8.43558C23.8009 7.65029 19.0326 11.5723 18.1492 17.1957C17.2657 22.8191 20.6017 28.0143 25.6003 28.7996Z" fill="#0E9347"/>
<path d="M13.2684 18.7475C14.5181 18.9438 15.6903 18.0899 15.8866 16.8402C16.0829 15.5906 15.229 14.4184 13.9794 14.2221C12.7297 14.0257 11.5575 14.8796 11.3612 16.1293C11.1649 17.3789 12.0188 18.5511 13.2684 18.7475Z" fill="#0E9347"/>
<path d="M40.4204 23.0131C41.6701 23.2094 42.8423 22.3555 43.0386 21.1059C43.2349 19.8562 42.381 18.684 41.1314 18.4877C39.8817 18.2914 38.7095 19.1453 38.5132 20.3949C38.3169 21.6446 39.1707 22.8168 40.4204 23.0131Z" fill="#0E9347"/>
<path d="M28.509 17.664L26.2463 17.3086C25.5675 17.2019 25.1861 16.6783 25.2928 15.9995C25.3994 15.3207 25.9231 14.9393 26.6018 15.046L29.9958 15.5792C30.6746 15.6858 31.1982 15.3043 31.3048 14.6256C31.4115 13.9468 31.03 13.4232 30.3513 13.3166L29.22 13.1388C29.3266 12.46 28.9451 11.9364 28.2664 11.8298C27.5876 11.7232 27.064 12.1047 26.9574 12.7834C25.0341 12.4812 23.3323 13.7209 23.0302 15.6442C22.728 17.5675 23.9677 19.2692 25.8909 19.5714L28.1537 19.9269C28.8325 20.0335 29.2139 20.5572 29.1072 21.2359C29.0006 21.9147 28.4769 22.2961 27.7982 22.1895L24.4042 21.6563C23.7254 21.5496 23.2018 21.9311 23.0952 22.6098C22.9885 23.2887 23.37 23.8122 24.0487 23.9189L25.18 24.0966C25.0734 24.7754 25.4549 25.299 26.1336 25.4056C26.8124 25.5123 27.336 25.1308 27.4426 24.4521C29.3659 24.7542 31.0677 23.5145 31.3698 21.5913C31.672 19.668 30.4323 17.9662 28.509 17.664Z" fill="#89C763"/>
</svg>
