<svg width="63" height="63" viewBox="0 0 63 63" fill="none" xmlns="http://www.w3.org/2000/svg">
<path d="M43.029 24.6094L44.5154 23.9489C46.7686 22.9468 48.4037 20.9052 48.887 18.4866L49.1941 16.949C51.3135 15.4754 52.9062 13.3147 53.6337 10.7691L54.0067 9.46181C56.4598 8.36916 58.0781 5.9348 58.0781 3.18937C58.0781 2.5328 57.7907 1.91559 57.2887 1.49527C56.7906 1.07887 56.1379 0.902671 55.503 1.01883L48.1458 2.33002C42.8055 3.28191 38.1435 6.52247 35.3548 11.2179C34.1204 13.295 33.4688 15.6732 33.4688 18.0958V24.6094H29.5312V18.0958C29.5312 15.6732 28.8796 13.295 27.6452 11.2189C24.8565 6.52247 20.1945 3.28289 14.8542 2.331L7.497 1.01883C6.86306 0.90464 6.20944 1.07887 5.71134 1.49527C5.20931 1.91559 4.92188 2.5328 4.92188 3.18937C4.92188 5.9348 6.54019 8.36916 8.99128 9.46083L9.36436 10.7681C10.0928 13.3147 11.6845 15.4744 13.8039 16.948L14.111 18.4856C14.5943 20.9042 16.2294 22.9458 18.4826 23.9479L19.97 24.6094H0.984375V62.0156H62.0156V24.6094H43.029ZM35.4375 18.0958C35.4375 16.0266 35.9937 13.9958 37.047 12.224C39.5443 8.0197 43.7151 5.12072 48.4923 4.26825L55.8495 2.95608C55.9302 2.94328 55.9903 2.9738 56.0257 3.00431C56.0562 3.03089 56.1094 3.09094 56.1094 3.18937C56.1094 5.30677 54.7765 7.17905 52.791 7.84744L41.2276 11.7416L41.8566 13.608L51.721 10.2857C50.8577 13.2339 48.6114 15.5718 45.6947 16.5434L42.0171 17.769L42.6402 19.6363L46.3178 18.4108C46.5324 18.3389 46.7342 18.2424 46.9429 18.1588C46.5698 19.9247 45.3689 21.4141 43.7171 22.1484L38.181 24.6094H35.4375V18.0958ZM19.2839 22.1494C17.6321 21.4151 16.4312 19.9257 16.0581 18.1588C16.2668 18.2424 16.4686 18.3389 16.6832 18.4108L20.3608 19.6363L20.9839 17.769L17.3063 16.5434C14.3906 15.5718 12.1432 13.2339 11.28 10.2857L21.1444 13.608L21.7734 11.7416L10.209 7.84744C8.22347 7.17905 6.89062 5.30775 6.89062 3.18937C6.89062 3.09094 6.94378 3.03089 6.97528 3.00431C7.01072 2.9738 7.07077 2.94328 7.15148 2.95608L14.5087 4.26825C19.2859 5.12072 23.4567 8.0197 25.954 12.224C27.0063 13.9958 27.5635 16.0266 27.5635 18.0958V24.6094H24.82L19.2839 22.1494ZM60.0469 60.0469H2.95312V26.5781H60.0469V60.0469Z" fill="#F0B00B"/>
<path d="M22.6406 56.1094H15.6998C15.2362 51.4661 11.5339 47.7629 6.89062 47.3002V39.3258C11.5339 38.8621 15.2371 35.1599 15.6998 30.5166H22.6406V28.5479H4.92188V58.0791H22.6406V56.1094ZM13.7133 30.5156C13.2674 34.0712 10.4462 36.8914 6.89062 37.3383V30.5156H13.7133ZM6.89062 49.2867C10.4462 49.7326 13.2664 52.5538 13.7133 56.1094H6.89062V49.2867Z" fill="#F0B00B"/>
<path d="M58.0781 28.5469H40.3594V30.5156H47.3002C47.7638 35.1589 51.4661 38.8621 56.1094 39.3248V47.2992C51.4661 47.7629 47.7629 51.4651 47.3002 56.1084H40.3594V58.0771H58.0781V28.5469ZM49.2867 30.5156H56.1094V37.3383C52.5538 36.8914 49.7336 34.0712 49.2867 30.5156V30.5156ZM49.2867 56.1094C49.7326 52.5538 52.5538 49.7336 56.1094 49.2867V56.1094H49.2867Z" fill="#F0B00B"/>
<path d="M27.5625 56.1094H28.5469V58.0781H34.4531V56.1094H35.4375C37.609 56.1094 39.375 54.3434 39.375 52.1719V44.2969C39.375 42.1253 37.609 40.3594 35.4375 40.3594H29.5312V36.4219H33.4688V38.3906H39.375V34.4531C39.375 32.2816 37.609 30.5156 35.4375 30.5156H34.4531V28.5469H28.5469V30.5156H27.5625C25.391 30.5156 23.625 32.2816 23.625 34.4531V42.3281C23.625 44.4997 25.391 46.2656 27.5625 46.2656H33.4688V50.2031H29.5312V48.2344H23.625V52.1719C23.625 54.3434 25.391 56.1094 27.5625 56.1094ZM25.5938 50.2031H27.5625V52.1719H35.4375V44.2969H27.5625C26.4767 44.2969 25.5938 43.4139 25.5938 42.3281V34.4531C25.5938 33.3674 26.4767 32.4844 27.5625 32.4844H30.5156V30.5156H32.4844V32.4844H35.4375C36.5233 32.4844 37.4062 33.3674 37.4062 34.4531V36.4219H35.4375V34.4531H27.5625V42.3281H35.4375C36.5233 42.3281 37.4062 43.2111 37.4062 44.2969V52.1719C37.4062 53.2576 36.5233 54.1406 35.4375 54.1406H32.4844V56.1094H30.5156V54.1406H27.5625C26.4767 54.1406 25.5938 53.2576 25.5938 52.1719V50.2031Z" fill="#F0B00B"/>
</svg>
