<svg width="60" height="49" viewBox="0 0 60 49" fill="none" xmlns="http://www.w3.org/2000/svg">
<path d="M53.6396 22.8523C53.6396 19.8585 51.3823 17.3836 48.4805 17.0359V2.00997C48.4805 1.08998 47.8837 0.310921 46.9954 0.0715255C46.1073 -0.167638 45.1999 0.205713 44.7376 1.00094C41.5635 6.46178 36.5643 10.1944 29.8786 12.0952C24.8232 13.5325 20.6514 13.3242 20.6111 13.3217C20.5499 13.3183 20.489 13.3212 20.4287 13.3272H9.739C4.36895 13.3272 0 17.6962 0 23.0662C0 28.1243 3.87631 32.2926 8.81401 32.7601L12.0382 46.0184C12.4651 47.7739 14.0251 49 15.8318 49H18.0696C19.2752 49 20.3939 48.4564 21.139 47.5085C21.8841 46.5605 22.1479 45.3449 21.8631 44.1734L19.0985 32.8051H20.4267C20.4873 32.8113 20.5484 32.8142 20.61 32.8107C20.6515 32.8084 24.8232 32.5998 29.8786 34.0372C36.5641 35.9381 41.5634 39.6707 44.7376 45.1314C45.1066 45.7665 45.7594 46.1325 46.4596 46.1325C46.6365 46.1325 46.8163 46.1091 46.9954 46.0609C47.8837 45.8215 48.4805 45.0426 48.4805 44.1226V29.0964C51.3823 28.7489 53.6396 26.2739 53.6396 23.2801V22.8523ZM19.2336 43.2114L19.6013 44.7235C19.7164 45.1965 19.6099 45.6874 19.3089 46.0702C19.0082 46.453 18.5564 46.6725 18.0696 46.6725H15.8318C15.1022 46.6725 14.4723 46.1774 14.3 45.4685L11.2204 32.8052H16.703L17.525 36.1855H16.9687C16.3259 36.1855 15.8049 36.7066 15.8049 37.3493C15.8049 37.9921 16.3259 38.5131 16.9687 38.5131H18.091L18.6675 40.8838H18.3028C17.66 40.8838 17.139 41.4049 17.139 42.0476C17.139 42.6904 17.66 43.2114 18.3028 43.2114H19.2336ZM19.3813 25.5388H12.1487C11.5059 25.5388 10.9849 26.0599 10.9849 26.7027C10.9849 27.3454 11.5059 27.8665 12.1487 27.8665H19.3813V30.4776H17.6811C17.6598 30.4764 17.6386 30.4749 17.617 30.4749H9.739C9.72795 30.4749 9.71701 30.4766 9.70595 30.4768C5.63459 30.4587 2.32762 27.1418 2.32762 23.0662C2.32762 18.9796 5.6524 15.6548 9.739 15.6548H19.3813V25.5388ZM46.1527 18.1564V27.976V42.9855C42.665 37.5615 37.255 33.6968 30.4366 31.7762C26.6613 30.7127 23.4004 30.5003 21.7089 30.4727V26.7027V15.6597C23.4006 15.6321 26.6616 15.4196 30.4366 14.3563C37.2549 12.4355 42.665 8.57095 46.1527 3.1469V18.1564ZM51.3117 23.2801C51.3117 24.9879 50.0936 26.4165 48.4803 26.7423V19.3901C50.0934 19.716 51.3117 21.1445 51.3117 22.8523V23.2801Z" fill="#F0B00B"/>
<path d="M53.9879 16.2762C54.2676 16.2762 54.5481 16.176 54.7711 15.9729L58.1279 12.9158C58.6031 12.483 58.6375 11.747 58.2047 11.2717C57.7719 10.7965 57.0359 10.7622 56.5606 11.1949L53.2039 14.2519C52.7288 14.6847 52.6943 15.4207 53.1271 15.896C53.3569 16.1482 53.6718 16.2762 53.9879 16.2762Z" fill="#F0B00B"/>
<path d="M54.7712 30.1596C54.2959 29.7269 53.56 29.7613 53.1271 30.2365C52.6943 30.7116 52.7288 31.4477 53.2039 31.8806L56.5606 34.9375C56.7838 35.1407 57.0643 35.241 57.344 35.241C57.6601 35.241 57.9751 35.1129 58.2047 34.8607C58.6375 34.3856 58.6031 33.6494 58.1279 33.2166L54.7712 30.1596Z" fill="#F0B00B"/>
<path d="M58.4233 21.9024H55.8458C55.203 21.9024 54.682 22.4235 54.682 23.0662C54.682 23.709 55.203 24.23 55.8458 24.23H58.4233C59.0661 24.23 59.5871 23.709 59.5871 23.0662C59.5871 22.4235 59.0661 21.9024 58.4233 21.9024Z" fill="#F0B00B"/>
<path d="M8.42832 26.2579C8.39922 26.1869 8.36315 26.1194 8.32125 26.0565C8.27819 25.9925 8.23047 25.9332 8.17694 25.8796C8.12224 25.8261 8.06288 25.7772 7.99887 25.7353C7.93603 25.6934 7.86853 25.6573 7.7987 25.6282C7.72771 25.5991 7.65439 25.577 7.58107 25.5619C7.43093 25.5316 7.27615 25.5316 7.12602 25.5619C7.05153 25.577 6.97821 25.5991 6.90838 25.6282C6.83855 25.6573 6.76989 25.6934 6.70704 25.7353C6.64303 25.7772 6.58368 25.8261 6.53014 25.8796C6.47661 25.9332 6.42773 25.9925 6.38583 26.0565C6.34393 26.1194 6.30786 26.1869 6.27876 26.2579C6.24967 26.3277 6.22755 26.401 6.21242 26.4755C6.19729 26.55 6.18915 26.6268 6.18915 26.7024C6.18915 26.7781 6.19729 26.8549 6.21242 26.9305C6.22755 27.0039 6.24967 27.0772 6.27876 27.1482C6.30786 27.218 6.34393 27.2855 6.38583 27.3483C6.42773 27.4124 6.47661 27.4717 6.53014 27.5252C6.58368 27.5788 6.64303 27.6277 6.70704 27.6707C6.76989 27.7126 6.83855 27.7487 6.90838 27.7778C6.97821 27.8069 7.05153 27.829 7.12602 27.8441C7.20166 27.8593 7.27731 27.8662 7.35296 27.8662C7.42977 27.8662 7.50542 27.8593 7.58107 27.8441C7.65555 27.829 7.72771 27.8069 7.7987 27.7778C7.86853 27.7487 7.93603 27.7126 7.99887 27.6707C8.06288 27.6277 8.12224 27.5788 8.17694 27.5252C8.23047 27.4717 8.27819 27.4124 8.32125 27.3483C8.36315 27.2855 8.39922 27.218 8.42832 27.1482C8.45742 27.0772 8.47953 27.0039 8.49466 26.9305C8.50979 26.8549 8.51677 26.7781 8.51677 26.7024C8.51677 26.6268 8.50979 26.55 8.49466 26.4755C8.47953 26.401 8.45742 26.3277 8.42832 26.2579Z" fill="#F0B00B"/>
</svg>
