<svg width="100" height="61" viewBox="0 0 100 61" fill="none" xmlns="http://www.w3.org/2000/svg">
<path d="M1 30.3365L5.08855 28.206L8.03141 24.5996L10.3221 21.3232L10.1592 20.1754L11.6302 18.8645L12.1205 17.7168L12.2852 15.7494L14.7368 13.4558L14.574 10.834L17.8453 7.22753L21.2794 6.08052L21.4422 4.76941L23.0778 2.80266H24.5507L26.512 1H27.6573L27.9848 1.65546L31.4189 2.47502H37.634L38.6146 2.80266L40.7406 2.63893L41.5584 4.93332L42.539 5.75269L43.849 5.58878L44.3393 4.93332L44.665 6.24443L45.8103 7.06436H46.6281L47.446 5.75269L48.2638 4.44159L53.8239 4.11395L54.3142 3.4583L54.4788 3.78613H58.0758L58.7308 2.63893L60.3664 2.80266L62.0021 2.47502L63.1455 3.62221L63.8005 4.44159L63.473 6.73616L64.7812 8.04708L65.2715 9.19484L64.4537 10.9971L65.2715 15.7494L66.5815 17.8799L67.8896 19.3559L69.8509 19.0277L70.8334 18.8645H71.4866L72.1416 20.5036L70.9962 20.995L69.6881 25.4191V30.3365L70.8334 31.8106L71.9769 32.1387V33.941L72.6319 34.7606L72.7947 35.9083L73.94 36.8911L80.1551 36.3997L81.2986 34.9256L81.4632 33.7779L85.2249 34.1061L88.1686 32.6301L91.6028 32.1387L92.9109 33.941L97 34.2692L95.8547 35.2538L92.7481 36.0715L91.1124 36.8911L89.8043 38.2038V40.4975L88.9865 41.1539L87.1861 42.4648L85.2249 43.4475L83.2617 44.1039L82.4439 45.0866V45.9062H76.721L73.94 46.8889L71.9769 47.2171L70.9962 48.1999L65.1087 51.6413L64.4537 53.1172L62.1649 54.265L61.1842 55.0845L58.7308 54.9195L57.7501 56.2304L55.787 57.8695H54.9692L53.006 59.3455L52.6804 60H51.3704L50.2269 59.3455L50.8801 57.215L49.7366 56.0672L48.4266 55.4108L42.0487 56.0672L42.7037 53.2804L42.539 51.6413L40.5777 48.3649L40.0874 45.2498L38.7793 43.1193L38.1243 39.8411L36.4886 37.5475L34.5255 34.5974L30.1107 34.7606L28.4751 34.5974L25.6941 34.4343L24.5507 35.417L23.7328 33.941L20.7891 33.4497L17.5178 31.4842L14.7368 31.6474L11.793 30.6647L8.68641 30.0083L7.70576 30.991H4.76142L3.45309 30.4996L3.12596 30.8278L1 30.3365V30.3365Z" stroke="#F0B00B" stroke-width="2"/>
</svg>
